<svg width="24" height="25" viewBox="0 0 24 25" fill="none" xmlns="http://www.w3.org/2000/svg">
<path fill-rule="evenodd" clip-rule="evenodd" d="M6.85002 9.96531C6.85002 8.64642 7.29061 7.35532 8.13533 6.40502C8.96613 5.47036 10.2307 4.81531 12 4.81531C13.7694 4.81531 15.0339 5.47036 15.8647 6.40502C16.7094 7.35532 17.15 8.64642 17.15 9.96531C17.15 11.2249 17.7766 12.1635 18.2542 12.879L18.2928 12.9368C18.8111 13.7142 19.15 14.2591 19.15 14.9653C19.15 15.9396 18.4563 16.7231 17.0165 17.3016C15.599 17.8711 13.7185 18.1153 12 18.1153C10.2816 18.1153 8.40102 17.8711 6.98359 17.3016C5.54375 16.7231 4.85002 15.9396 4.85002 14.9653C4.85002 14.2719 5.17424 13.795 5.69813 13.0407C6.20176 12.3157 6.85002 11.3732 6.85002 9.96531ZM12 3.11531C9.76938 3.11531 8.03393 3.96026 6.86473 5.2756C5.70944 6.5753 5.15002 8.2842 5.15002 9.96531C5.15002 10.7988 4.79829 11.3563 4.30191 12.0709L4.23218 12.171C3.76258 12.8438 3.15002 13.7214 3.15002 14.9653C3.15002 16.9911 4.67852 18.2075 6.3498 18.879C8.04348 19.5595 10.1629 19.8153 12 19.8153C13.8371 19.8153 15.9566 19.5595 17.6503 18.879C19.3215 18.2075 20.85 16.9911 20.85 14.9653C20.85 13.7057 20.2235 12.7671 19.7458 12.0516L19.7073 11.9938C19.189 11.2164 18.85 10.6715 18.85 9.96531C18.85 8.2842 18.2906 6.5753 17.1353 5.2756C15.9661 3.96026 14.2307 3.11531 12 3.11531ZM9.52853 20.2581C9.91605 19.9997 10.4386 20.1016 10.7011 20.4846L10.7074 20.4931C10.7165 20.5051 10.7342 20.5274 10.7603 20.5569C10.8132 20.6164 10.897 20.7005 11.01 20.7853C11.2336 20.953 11.559 21.1153 12 21.1153C12.441 21.1153 12.7665 20.953 12.99 20.7853C13.1031 20.7005 13.1868 20.6164 13.2397 20.5569C13.2659 20.5274 13.2836 20.5051 13.2927 20.4931L13.299 20.4846C13.5615 20.1016 14.084 19.9997 14.4715 20.2581C14.8621 20.5185 14.9677 21.0462 14.7073 21.4368L14 20.9653C14.7073 21.4368 14.7071 21.4371 14.7068 21.4375L14.7064 21.4381L14.7054 21.4395L14.7033 21.4427L14.6983 21.45L14.6849 21.4691C14.6746 21.4837 14.6612 21.502 14.6449 21.5234C14.6123 21.5662 14.5675 21.622 14.5103 21.6863C14.3966 21.8142 14.2303 21.9801 14.01 22.1453C13.5669 22.4777 12.8924 22.8153 12 22.8153C11.1077 22.8153 10.4332 22.4777 9.99002 22.1453C9.76974 21.9801 9.60348 21.8142 9.48973 21.6863C9.43256 21.622 9.38775 21.5662 9.35516 21.5234C9.33884 21.502 9.3255 21.4837 9.31512 21.4691L9.30176 21.45L9.29673 21.4427L9.29462 21.4395L9.29367 21.4381L9.29322 21.4375C9.293 21.4371 9.29278 21.4368 10 20.9653L9.29278 21.4368C9.03238 21.0462 9.13793 20.5185 9.52853 20.2581Z" fill="white"/>
</svg>
