<svg width="196" height="45" viewBox="0 0 196 45" fill="none" xmlns="http://www.w3.org/2000/svg">
<path d="M13 17C13 19.3333 12.6111 20.5 9.5 20.5C6.38889 20.5 6 19.3333 6 17C6 14.6667 6.4375 13.5 9.5 13.5C12.5625 13.5 13 14.6667 13 17Z" fill="#FF4144" stroke="#FF4144" stroke-width="1.5" stroke-linecap="round" stroke-linejoin="round"/>
<path d="M13 28C13 30.3333 12.6111 31.5 9.5 31.5C6.38889 31.5 6 30.3333 6 28C6 25.6667 6.4375 24.5 9.5 24.5C12.5625 24.5 13 25.6667 13 28Z" fill="#225DB3" stroke="#225DB3" stroke-width="1.5" stroke-linecap="round" stroke-linejoin="round"/>
<path d="M24 28C24 30.3333 23.6111 31.5 20.5 31.5C17.3889 31.5 17 30.3333 17 28C17 25.6667 17.4375 24.5 20.5 24.5C23.5625 24.5 24 25.6667 24 28Z" fill="#00E096" stroke="#00E096" stroke-width="1.5" stroke-linecap="round" stroke-linejoin="round"/>
<path d="M54.82 28.74H46.09L44.59 33H41.02L48.49 12.12H52.45L59.92 33H56.32L54.82 28.74ZM53.86 25.95L50.47 16.26L47.05 25.95H53.86ZM78.438 16.47V33H75.018V31.05C74.478 31.73 73.768 32.27 72.888 32.67C72.028 33.05 71.108 33.24 70.128 33.24C68.828 33.24 67.658 32.97 66.618 32.43C65.598 31.89 64.788 31.09 64.188 30.03C63.608 28.97 63.318 27.69 63.318 26.19V16.47H66.708V25.68C66.708 27.16 67.078 28.3 67.818 29.1C68.558 29.88 69.568 30.27 70.848 30.27C72.128 30.27 73.138 29.88 73.878 29.1C74.638 28.3 75.018 27.16 75.018 25.68V16.47H78.438ZM82.1104 24.66C82.1104 23 82.4504 21.53 83.1304 20.25C83.8304 18.97 84.7704 17.98 85.9504 17.28C87.1504 16.56 88.4804 16.2 89.9404 16.2C91.0204 16.2 92.0804 16.44 93.1204 16.92C94.1804 17.38 95.0204 18 95.6404 18.78V10.8H99.0904V33H95.6404V30.51C95.0804 31.31 94.3004 31.97 93.3004 32.49C92.3204 33.01 91.1904 33.27 89.9104 33.27C88.4704 33.27 87.1504 32.91 85.9504 32.19C84.7704 31.45 83.8304 30.43 83.1304 29.13C82.4504 27.81 82.1104 26.32 82.1104 24.66ZM95.6404 24.72C95.6404 23.58 95.4004 22.59 94.9204 21.75C94.4604 20.91 93.8504 20.27 93.0904 19.83C92.3304 19.39 91.5104 19.17 90.6304 19.17C89.7504 19.17 88.9304 19.39 88.1704 19.83C87.4104 20.25 86.7904 20.88 86.3104 21.72C85.8504 22.54 85.6204 23.52 85.6204 24.66C85.6204 25.8 85.8504 26.8 86.3104 27.66C86.7904 28.52 87.4104 29.18 88.1704 29.64C88.9504 30.08 89.7704 30.3 90.6304 30.3C91.5104 30.3 92.3304 30.08 93.0904 29.64C93.8504 29.2 94.4604 28.56 94.9204 27.72C95.4004 26.86 95.6404 25.86 95.6404 24.72ZM105.622 14.28C105.002 14.28 104.482 14.07 104.062 13.65C103.642 13.23 103.432 12.71 103.432 12.09C103.432 11.47 103.642 10.95 104.062 10.53C104.482 10.11 105.002 9.9 105.622 9.9C106.222 9.9 106.732 10.11 107.152 10.53C107.572 10.95 107.782 11.47 107.782 12.09C107.782 12.71 107.572 13.23 107.152 13.65C106.732 14.07 106.222 14.28 105.622 14.28ZM107.302 16.47V33H103.882V16.47H107.302ZM116.083 19.26V28.41C116.083 29.03 116.223 29.48 116.503 29.76C116.803 30.02 117.303 30.15 118.003 30.15H120.103V33H117.403C115.863 33 114.683 32.64 113.863 31.92C113.043 31.2 112.633 30.03 112.633 28.41V19.26H110.683V16.47H112.633V12.36H116.083V16.47H120.103V19.26H116.083ZM148.298 12.15V33H144.878V23.88H135.068V33H131.648V12.15H135.068V21.09H144.878V12.15H148.298ZM154.84 14.28C154.22 14.28 153.7 14.07 153.28 13.65C152.86 13.23 152.65 12.71 152.65 12.09C152.65 11.47 152.86 10.95 153.28 10.53C153.7 10.11 154.22 9.9 154.84 9.9C155.44 9.9 155.95 10.11 156.37 10.53C156.79 10.95 157 11.47 157 12.09C157 12.71 156.79 13.23 156.37 13.65C155.95 14.07 155.44 14.28 154.84 14.28ZM156.52 16.47V33H153.1V16.47H156.52ZM167.7 29.94L172.38 16.47H176.01L169.71 33H165.63L159.36 16.47H163.02L167.7 29.94ZM194.045 24.33C194.045 24.95 194.005 25.51 193.925 26.01H181.295C181.395 27.33 181.885 28.39 182.765 29.19C183.645 29.99 184.725 30.39 186.005 30.39C187.845 30.39 189.145 29.62 189.905 28.08H193.595C193.095 29.6 192.185 30.85 190.865 31.83C189.565 32.79 187.945 33.27 186.005 33.27C184.425 33.27 183.005 32.92 181.745 32.22C180.505 31.5 179.525 30.5 178.805 29.22C178.105 27.92 177.755 26.42 177.755 24.72C177.755 23.02 178.095 21.53 178.775 20.25C179.475 18.95 180.445 17.95 181.685 17.25C182.945 16.55 184.385 16.2 186.005 16.2C187.565 16.2 188.955 16.54 190.175 17.22C191.395 17.9 192.345 18.86 193.025 20.1C193.705 21.32 194.045 22.73 194.045 24.33ZM190.475 23.25C190.455 21.99 190.005 20.98 189.125 20.22C188.245 19.46 187.155 19.08 185.855 19.08C184.675 19.08 183.665 19.46 182.825 20.22C181.985 20.96 181.485 21.97 181.325 23.25H190.475Z" fill="white"/>
</svg>
