<svg width="21" height="25" viewBox="0 0 21 25" fill="none" xmlns="http://www.w3.org/2000/svg">
<path fill-rule="evenodd" clip-rule="evenodd" d="M2.01046 12.5C2.01046 10.0726 2.01073 8.21546 2.0744 6.77526C2.13891 5.31614 2.26573 4.40542 2.46796 3.81895C2.64444 3.30718 2.86377 3.07546 3.20377 2.92209C3.62118 2.73379 4.25405 2.65208 5.29171 2.65208C6.30609 2.65208 7.01383 2.72668 7.50849 2.85419C8.00157 2.98129 8.21305 3.14335 8.31146 3.25751C8.39921 3.3593 8.47358 3.51054 8.5199 3.83291C8.57045 4.18471 8.57296 4.61978 8.57296 5.25C8.57296 5.81724 8.96937 6.27708 9.45837 6.27708C9.94738 6.27708 10.3438 5.81724 10.3438 5.25L10.3438 5.19856V5.19854C10.3439 4.6351 10.3439 4.03325 10.2666 3.49521C10.1827 2.91133 9.9967 2.30736 9.56362 1.80499C9.1412 1.31498 8.57143 1.02391 7.89264 0.848936C7.21542 0.674364 6.36066 0.597916 5.29171 0.597916C4.24603 0.597916 3.3164 0.66725 2.56194 1.0076C1.73006 1.38287 1.16815 2.0574 0.823785 3.05605C0.505185 3.97999 0.371593 5.18386 0.30589 6.67005C0.239624 8.16899 0.239624 10.0783 0.239624 12.4704V12.4707V12.5V12.5293V12.5296C0.239624 14.9217 0.239624 16.831 0.30589 18.3299C0.371593 19.8161 0.505185 21.02 0.823785 21.9439C1.16815 22.9426 1.73006 23.6171 2.56194 23.9924C3.3164 24.3327 4.24603 24.4021 5.29171 24.4021C6.36066 24.4021 7.21542 24.3256 7.89264 24.1511C8.57143 23.9761 9.1412 23.685 9.56362 23.195C9.9967 22.6926 10.1827 22.0887 10.2666 21.5048C10.3439 20.9668 10.3439 20.3649 10.3438 19.8015V19.8014L10.3438 19.75C10.3438 19.1828 9.94738 18.7229 9.45837 18.7229C8.96937 18.7229 8.57296 19.1828 8.57296 19.75C8.57296 20.3802 8.57045 20.8153 8.5199 21.1671C8.47358 21.4895 8.39921 21.6407 8.31146 21.7425C8.21305 21.8566 8.00157 22.0187 7.50849 22.1458C7.01383 22.2733 6.30609 22.3479 5.29171 22.3479C4.25405 22.3479 3.62118 22.2662 3.20377 22.0779C2.86377 21.9245 2.64444 21.6928 2.46796 21.181C2.26573 20.5946 2.13891 19.6839 2.0744 18.2247C2.01073 16.7845 2.01046 14.9274 2.01046 12.5ZM16.3345 6.94041C15.9887 6.53931 15.4281 6.53931 15.0823 6.94041C14.7365 7.34151 14.7365 7.99182 15.0823 8.39292L17.7375 11.4729H9.45837C8.96937 11.4729 8.57296 11.9328 8.57296 12.5C8.57296 13.0672 8.96937 13.5271 9.45837 13.5271H17.7375L15.0823 16.6071C14.7365 17.0082 14.7365 17.6585 15.0823 18.0596C15.4281 18.4607 15.9887 18.4607 16.3345 18.0596L20.5011 13.2263C20.8469 12.8252 20.8469 12.1748 20.5011 11.7737L16.3345 6.94041Z" fill="#5671FF"/>
</svg>
