<svg width="165" height="36" viewBox="0 0 165 36" fill="none" xmlns="http://www.w3.org/2000/svg">
<path d="M13 12.5C13 14.8333 12.6111 16 9.5 16C6.38889 16 6 14.8333 6 12.5C6 10.1667 6.4375 9 9.5 9C12.5625 9 13 10.1667 13 12.5Z" fill="#FF4144" stroke="#FF4144" stroke-width="1.5" stroke-linecap="round" stroke-linejoin="round"/>
<path d="M13 23.5C13 25.8333 12.6111 27 9.5 27C6.38889 27 6 25.8333 6 23.5C6 21.1667 6.4375 20 9.5 20C12.5625 20 13 21.1667 13 23.5Z" fill="#347AE2" stroke="#347AE2" stroke-width="1.5" stroke-linecap="round" stroke-linejoin="round"/>
<path d="M24 23.5C24 25.8333 23.6111 27 20.5 27C17.3889 27 17 25.8333 17 23.5C17 21.1667 17.4375 20 20.5 20C23.5625 20 24 21.1667 24 23.5Z" fill="#00E096" stroke="#00E096" stroke-width="1.5" stroke-linecap="round" stroke-linejoin="round"/>
<path d="M51.856 22.592H44.872L43.672 26H40.816L46.792 9.296H49.96L55.936 26H53.056L51.856 22.592ZM51.088 20.36L48.376 12.608L45.64 20.36H51.088ZM70.7504 12.776V26H68.0144V24.44C67.5824 24.984 67.0144 25.416 66.3104 25.736C65.6224 26.04 64.8864 26.192 64.1024 26.192C63.0624 26.192 62.1264 25.976 61.2944 25.544C60.4784 25.112 59.8304 24.472 59.3504 23.624C58.8864 22.776 58.6544 21.752 58.6544 20.552V12.776H61.3664V20.144C61.3664 21.328 61.6624 22.24 62.2544 22.88C62.8464 23.504 63.6544 23.816 64.6784 23.816C65.7024 23.816 66.5104 23.504 67.1024 22.88C67.7104 22.24 68.0144 21.328 68.0144 20.144V12.776H70.7504ZM73.6883 19.328C73.6883 18 73.9603 16.824 74.5043 15.8C75.0643 14.776 75.8163 13.984 76.7603 13.424C77.7203 12.848 78.7843 12.56 79.9523 12.56C80.8163 12.56 81.6643 12.752 82.4963 13.136C83.3443 13.504 84.0163 14 84.5123 14.624V8.24H87.2723V26H84.5123V24.008C84.0643 24.648 83.4403 25.176 82.6403 25.592C81.8563 26.008 80.9523 26.216 79.9283 26.216C78.7763 26.216 77.7203 25.928 76.7603 25.352C75.8163 24.76 75.0643 23.944 74.5043 22.904C73.9603 21.848 73.6883 20.656 73.6883 19.328ZM84.5123 19.376C84.5123 18.464 84.3203 17.672 83.9363 17C83.5683 16.328 83.0803 15.816 82.4723 15.464C81.8643 15.112 81.2083 14.936 80.5043 14.936C79.8003 14.936 79.1443 15.112 78.5363 15.464C77.9283 15.8 77.4323 16.304 77.0483 16.976C76.6803 17.632 76.4963 18.416 76.4963 19.328C76.4963 20.24 76.6803 21.04 77.0483 21.728C77.4323 22.416 77.9283 22.944 78.5363 23.312C79.1603 23.664 79.8163 23.84 80.5043 23.84C81.2083 23.84 81.8643 23.664 82.4723 23.312C83.0803 22.96 83.5683 22.448 83.9363 21.776C84.3203 21.088 84.5123 20.288 84.5123 19.376ZM92.4979 11.024C92.0019 11.024 91.5859 10.856 91.2499 10.52C90.9139 10.184 90.7459 9.768 90.7459 9.272C90.7459 8.776 90.9139 8.36 91.2499 8.024C91.5859 7.688 92.0019 7.52 92.4979 7.52C92.9779 7.52 93.3859 7.688 93.7219 8.024C94.0579 8.36 94.2259 8.776 94.2259 9.272C94.2259 9.768 94.0579 10.184 93.7219 10.52C93.3859 10.856 92.9779 11.024 92.4979 11.024ZM93.8419 12.776V26H91.1059V12.776H93.8419ZM100.866 15.008V22.328C100.866 22.824 100.978 23.184 101.202 23.408C101.442 23.616 101.842 23.72 102.402 23.72H104.082V26H101.922C100.69 26 99.7461 25.712 99.0901 25.136C98.4341 24.56 98.1061 23.624 98.1061 22.328V15.008H96.5461V12.776H98.1061V9.488H100.866V12.776H104.082V15.008H100.866ZM126.638 9.32V26H123.902V18.704H116.054V26H113.318V9.32H116.054V16.472H123.902V9.32H126.638ZM131.872 11.024C131.376 11.024 130.96 10.856 130.624 10.52C130.288 10.184 130.12 9.768 130.12 9.272C130.12 8.776 130.288 8.36 130.624 8.024C130.96 7.688 131.376 7.52 131.872 7.52C132.352 7.52 132.76 7.688 133.096 8.024C133.432 8.36 133.6 8.776 133.6 9.272C133.6 9.768 133.432 10.184 133.096 10.52C132.76 10.856 132.352 11.024 131.872 11.024ZM133.216 12.776V26H130.48V12.776H133.216ZM142.16 23.552L145.904 12.776H148.808L143.768 26H140.504L135.488 12.776H138.416L142.16 23.552ZM163.236 19.064C163.236 19.56 163.204 20.008 163.14 20.408H153.036C153.116 21.464 153.508 22.312 154.212 22.952C154.916 23.592 155.78 23.912 156.804 23.912C158.276 23.912 159.316 23.296 159.924 22.064H162.876C162.476 23.28 161.748 24.28 160.692 25.064C159.652 25.832 158.356 26.216 156.804 26.216C155.54 26.216 154.404 25.936 153.396 25.376C152.404 24.8 151.62 24 151.044 22.976C150.484 21.936 150.204 20.736 150.204 19.376C150.204 18.016 150.476 16.824 151.02 15.8C151.58 14.76 152.356 13.96 153.348 13.4C154.356 12.84 155.508 12.56 156.804 12.56C158.052 12.56 159.164 12.832 160.14 13.376C161.116 13.92 161.876 14.688 162.42 15.68C162.964 16.656 163.236 17.784 163.236 19.064ZM160.38 18.2C160.364 17.192 160.004 16.384 159.3 15.776C158.596 15.168 157.724 14.864 156.684 14.864C155.74 14.864 154.932 15.168 154.26 15.776C153.588 16.368 153.188 17.176 153.06 18.2H160.38Z" fill="white"/>
</svg>
