<svg width="24" height="25" viewBox="0 0 24 25" fill="none" xmlns="http://www.w3.org/2000/svg">
<path fill-rule="evenodd" clip-rule="evenodd" d="M3.85002 10.5C3.85002 7.10345 6.60347 4.35 10 4.35C13.3966 4.35 16.15 7.10345 16.15 10.5C16.15 13.8966 13.3966 16.65 10 16.65C6.60347 16.65 3.85002 13.8966 3.85002 10.5ZM10 2.65C5.66459 2.65 2.15002 6.16456 2.15002 10.5C2.15002 14.8354 5.66459 18.35 10 18.35C11.8615 18.35 13.5717 17.7021 14.9173 16.6194L20.399 22.101C20.7309 22.433 21.2691 22.433 21.6011 22.101C21.933 21.7691 21.933 21.2309 21.6011 20.899L16.1194 15.4173C17.2021 14.0717 17.85 12.3615 17.85 10.5C17.85 6.16456 14.3355 2.65 10 2.65Z" fill="white"/>
</svg>
