<svg width="20" height="20" viewBox="0 0 20 20" fill="none" xmlns="http://www.w3.org/2000/svg">
<path fill-rule="evenodd" clip-rule="evenodd" d="M1.85002 9.99999C1.85002 5.49887 5.4989 1.84999 10 1.84999C14.5011 1.84999 18.15 5.49887 18.15 9.99999C18.15 14.5011 14.5011 18.15 10 18.15C5.4989 18.15 1.85002 14.5011 1.85002 9.99999ZM10 0.149994C4.56002 0.149994 0.150024 4.55999 0.150024 9.99999C0.150024 15.44 4.56002 19.85 10 19.85C15.44 19.85 19.85 15.44 19.85 9.99999C19.85 4.55999 15.44 0.149994 10 0.149994ZM9.15002 10C9.15002 10.4694 9.53058 10.85 10 10.85C10.4695 10.85 10.85 10.4694 10.85 10V6.00001C10.85 5.53056 10.4695 5.15001 10 5.15001C9.53058 5.15001 9.15002 5.53056 9.15002 6.00001V10ZM10 12.35C9.36491 12.35 8.85004 12.8649 8.85004 13.5C8.85004 14.1351 9.36491 14.65 10 14.65C10.6352 14.65 11.15 14.1351 11.15 13.5C11.15 12.8649 10.6352 12.35 10 12.35Z" fill="#7C8DB5"/>
</svg>
