<svg width="18" height="19" viewBox="0 0 18 19" fill="none" xmlns="http://www.w3.org/2000/svg">
<path fill-rule="evenodd" clip-rule="evenodd" d="M5.89281 3.2902C5.95947 2.82478 6.1017 2.56808 6.3032 2.39536C6.63851 2.10795 7.36297 1.84999 9.00002 1.84999C10.6371 1.84999 11.3615 2.10795 11.6969 2.39536C11.8987 2.56835 12.041 2.82558 12.1075 3.2924C11.2013 3.18944 10.1687 3.14999 9.00002 3.14999C7.83003 3.14999 6.79777 3.18956 5.89281 3.2902ZM4.15891 3.60317C4.20285 2.67764 4.42673 1.76473 5.19685 1.10463C6.0282 0.392038 7.30375 0.149994 9.00002 0.149994C10.6963 0.149994 11.9718 0.392038 12.8032 1.10463C13.5763 1.76729 13.7989 2.68473 13.8416 3.61395C14.7273 3.86092 15.4776 4.23419 16.0805 4.79769C17.2614 5.90157 17.6879 7.55943 17.8092 9.73893C17.8357 9.82119 17.85 9.90892 17.85 9.99999C17.85 10.1577 17.8469 10.3169 17.8387 10.4766C17.8466 10.7793 17.85 11.0911 17.85 11.4118C17.85 13.8466 17.5321 15.8446 16.0663 17.1541C14.6393 18.429 12.3374 18.85 9.00002 18.85C7.31521 18.85 5.91604 18.768 4.77127 18.5396C3.62224 18.3105 2.67025 17.9227 1.9347 17.2676C0.455278 15.9499 0.150024 13.8222 0.150024 11C0.150024 10.7798 0.151882 10.5639 0.156011 10.3522C0.151764 10.2342 0.150024 10.1167 0.150024 9.99999C0.150024 9.93308 0.157757 9.86797 0.172378 9.80551C0.264566 7.57213 0.671862 5.85715 1.9347 4.73243C2.53531 4.19751 3.28024 3.84081 4.15891 3.60317ZM1.85702 10.341C1.91096 7.91923 2.2797 6.70165 3.06535 6.00193C3.49647 5.61797 4.12781 5.32218 5.10378 5.12752C6.08401 4.93202 7.35151 4.84999 9.00002 4.84999C10.6493 4.84999 11.9142 4.93215 12.8914 5.13297C13.8623 5.3325 14.4892 5.63735 14.9196 6.03961C15.6917 6.76135 16.0647 8.01517 16.1369 10.459C16.1137 10.8253 16.0586 11.1213 15.9613 11.3695C15.837 11.6867 15.6282 11.9658 15.2262 12.2152C14.3434 12.763 12.5692 13.15 9.00607 13.15C5.44326 13.15 3.66526 12.7631 2.77898 12.2147C2.37506 11.9647 2.16503 11.6851 2.03999 11.3679C1.93198 11.094 1.87554 10.7617 1.85702 10.341ZM15.9827 13.743C15.8014 14.7423 15.4647 15.4119 14.9337 15.8863C14.0274 16.696 12.3293 17.15 9.00002 17.15C7.35151 17.15 6.08401 17.068 5.10378 16.8725C4.12781 16.6778 3.49647 16.382 3.06535 15.9981C2.54773 15.537 2.21107 14.8512 2.02619 13.7444C3.37574 14.5116 5.56842 14.85 9.00607 14.85C12.4448 14.85 14.6357 14.5114 15.9827 13.743ZM6.15002 11C6.15002 10.5306 6.53058 10.15 7.00002 10.15H11C11.4695 10.15 11.85 10.5306 11.85 11C11.85 11.4694 11.4695 11.85 11 11.85L7.00002 11.85C6.53058 11.85 6.15002 11.4694 6.15002 11Z" fill="#7C8DB5"/>
</svg>
